<svg width="43" height="32" viewBox="0 0 43 32" fill="none" xmlns="http://www.w3.org/2000/svg">
<path d="M41.3773 29.4516H33.7335C33.4403 27.8602 32.3138 26.5425 30.7987 25.9992L28.8131 18.316C29.341 17.9245 29.6894 17.3553 29.7966 16.7034C30.0077 15.4191 29.2186 14.1974 27.9611 13.8616L18.2513 11.2688C18.9382 10.7701 19.491 10.0716 19.8087 9.21828V9.21819L20.1717 8.24311C20.5879 7.12518 20.5438 5.91205 20.0475 4.82717C19.6295 3.91324 18.9327 3.18255 18.0515 2.72484C17.903 1.59628 17.1364 0.602731 16.0447 0.196294C14.4313 -0.404254 12.6302 0.419748 12.0297 2.03297C11.7349 2.82466 11.7752 3.68938 12.125 4.43977C11.998 4.65845 11.8896 4.88808 11.8008 5.12679L11.4378 6.10187C11.0216 7.2198 11.0656 8.43293 11.5618 9.51781C11.6788 9.77349 11.8183 10.0143 11.9767 10.2393C10.107 11.0947 8.76589 12.8448 8.45885 14.9238C8.39234 15.3742 8.70349 15.7931 9.15386 15.8597C9.19474 15.8657 9.23521 15.8686 9.27536 15.8686C9.67726 15.8686 10.0292 15.5741 10.0897 15.1647C10.2653 13.9761 10.9032 12.9345 11.8263 12.2373C11.5728 12.8638 11.544 13.5647 11.7651 14.2427C12.0946 15.2537 12.9472 16.0103 13.9901 16.2174L17.4596 16.9064V18.7112L15.4989 21.5616L10.6125 24.2007C10.5285 23.5881 10.4533 22.971 10.3881 22.3585C10.3399 21.9058 9.93393 21.5773 9.48117 21.6262C9.02849 21.6743 8.70061 22.0804 8.74883 22.533C8.83933 23.3827 8.94846 24.2415 9.07317 25.0856L9.15023 25.6073C9.36949 27.0913 10.1023 28.4509 11.2163 29.4516H0.824249C0.369016 29.4516 0 29.8207 0 30.2759C0 30.731 0.369016 31.1001 0.824249 31.1001H41.3773C41.8325 31.1001 42.2015 30.731 42.2015 30.2759C42.2015 29.8206 41.8325 29.4516 41.3773 29.4516V29.4516ZM14.6401 10.3005C13.9348 10.0379 13.3739 9.51641 13.0608 8.83203C12.8973 8.47447 12.8124 8.09482 12.8052 7.7132L14.3891 8.30286C14.4826 8.33765 14.58 8.35463 14.6765 8.35463C14.8781 8.35463 15.0766 8.28061 15.2309 8.1404C15.7563 7.66316 16.4959 7.52074 17.1611 7.76801L18.4155 8.23503L18.2636 8.64295V8.64287C17.7216 10.099 16.096 10.8427 14.6401 10.3005V10.3005ZM13.7625 3.9871C13.4726 3.5861 13.4023 3.07053 13.5745 2.60805C13.7951 2.01549 14.3589 1.64854 14.957 1.64854C15.1274 1.64854 15.3007 1.67829 15.4695 1.74118C16.0743 1.9662 16.4676 2.57277 16.4261 3.21609C16.4026 3.58157 16.6229 3.9186 16.967 4.04372L16.9752 4.04661C17.6777 4.30987 18.2362 4.83039 18.5484 5.51278C18.7104 5.86696 18.7953 6.24274 18.8038 6.62074L17.7363 6.2232C16.6561 5.8213 15.4712 5.96876 14.5341 6.59782L13.1972 6.10014L13.3455 5.70186C13.4435 5.43852 13.5793 5.19256 13.7489 4.97109C13.9702 4.68202 13.9757 4.2821 13.7625 3.9871V3.9871ZM13.3321 13.7318C13.1826 13.2731 13.2913 12.7902 13.6231 12.4399C13.8736 12.1754 14.2063 12.0338 14.555 12.0338C14.6682 12.0338 14.7831 12.0487 14.8972 12.0792L27.5356 15.4541C27.9701 15.5701 28.2426 15.9922 28.1697 16.4359C28.1311 16.6707 28.0021 16.8746 27.8066 17.0101C27.611 17.1457 27.3749 17.1949 27.1415 17.1484L14.3111 14.6005C13.8522 14.5093 13.4772 14.1765 13.3321 13.7318V13.7318ZM10.8982 25.9199L16.457 22.9176C16.5719 22.8556 16.6704 22.7671 16.7444 22.6595L18.9666 19.4288C18.9669 19.4285 18.9671 19.4281 18.9674 19.4277L20.312 17.4728L26.8205 18.7653C26.9599 18.7929 27.0996 18.8082 27.2386 18.8125L29.0104 25.6684L26.9002 25.4134L24.1115 20.5432C23.9581 20.2753 23.6681 20.1152 23.3595 20.1294C23.0512 20.1431 22.7763 20.3279 22.6473 20.6083L19.8608 26.6663C19.0825 28.3582 17.3763 29.4514 15.514 29.4514C13.3506 29.4516 11.4579 27.9678 10.8982 25.9199V25.9199ZM21.3586 27.3553L23.4763 22.7514L25.5664 26.4014V28.8472C25.5664 29.0565 25.5957 29.2591 25.6494 29.4516H19.809C20.4527 28.8751 20.9853 28.1668 21.3586 27.3553V27.3553ZM27.8193 29.4516C27.486 29.4516 27.2149 29.1804 27.2149 28.8472V27.112L29.6125 27.4017C30.7817 27.543 31.7193 28.371 32.0408 29.4516H27.8193Z" fill="#D3C0B8"/>
<path d="M9.79949 19.3364C9.95281 19.1822 10.041 18.9704 10.041 18.7537C10.041 18.536 9.95281 18.3243 9.79949 18.1709C9.64618 18.0168 9.43353 17.9294 9.21675 17.9294C8.99997 17.9294 8.78732 18.0168 8.63401 18.1709C8.4807 18.3234 8.3925 18.5361 8.3925 18.7537C8.3925 18.9705 8.4807 19.1831 8.63401 19.3364C8.78732 19.4897 8.99997 19.5779 9.21675 19.5779C9.43353 19.5779 9.64618 19.4897 9.79949 19.3364V19.3364Z" fill="#D3C0B8"/>
</svg>
