<svg width="54" height="38" viewBox="0 0 54 38" fill="none" xmlns="http://www.w3.org/2000/svg">
<path d="M52.9453 35.3837H47.1887C47.7476 34.5849 48.0769 33.6141 48.0769 32.5673C48.0769 30.0964 46.2287 27.996 43.7779 27.6814C43.2015 27.6081 42.6717 28.0156 42.5976 28.5933C42.5235 29.1711 42.9318 29.6995 43.5096 29.7736C44.9108 29.9533 45.9676 31.1543 45.9676 32.5672C45.9676 34.1202 44.7042 35.3836 43.1512 35.3836H35.1119V33.2742H37.741C38.3234 33.2742 38.7957 32.8021 38.7957 32.2196C38.7957 31.637 38.3234 31.1649 37.741 31.1649H30.9376C30.9309 31.1649 30.9243 31.1654 30.9176 31.1654L32.67 28.383L34.0954 28.5659C34.141 28.5717 34.1861 28.5746 34.2309 28.5746C34.7536 28.5746 35.2075 28.1861 35.2757 27.6539C35.3498 27.0762 34.9415 26.5478 34.3638 26.4736L33.254 26.3312L34.695 22.3555C35.9646 18.8525 34.6923 14.9533 31.6008 12.8734L30.3183 12.0106C31.7323 10.7037 32.4221 8.68842 31.9437 6.69527L31.6484 5.46466C30.9982 2.75528 28.4288 0.997852 25.7331 1.29021C24.8038 0.251977 23.346 -0.228433 21.9589 0.104532C19.8949 0.599918 18.6186 2.68208 19.1139 4.74621C19.1296 4.81171 19.1489 4.87583 19.1679 4.94006C18.421 5.13212 17.7144 5.51603 17.1309 6.09389L12.7905 10.3914C12.5512 10.6284 12.3602 10.8957 12.2163 11.1806C11.3632 10.5868 10.3277 10.2375 9.21175 10.2375C8.62924 10.2375 8.15706 10.7097 8.15706 11.2922V19.6562L6.00739 31.4518C5.75459 32.8392 6.08207 34.2531 6.90578 35.3837H1.05469C0.472184 35.3837 0 35.8559 0 36.4384C0 37.0209 0.472184 37.4931 1.05469 37.4931H52.9453C53.5277 37.4931 54 37.0209 54 36.4384C54 35.8559 53.5277 35.3837 52.9453 35.3837ZM32.7117 21.6368L30.9434 26.5156L25.8797 25.5103C26.992 23.7487 27.282 21.5506 26.5917 19.5124L25.5228 16.3561C26.3584 16.2873 27.1508 15.9245 27.7491 15.3236C28.2585 14.8121 28.5924 14.1734 28.7225 13.4796L30.4231 14.6237C32.7097 16.1619 33.6508 19.0459 32.7117 21.6368ZM15.1201 24.8006V19.8816C15.5353 18.5001 15.3568 16.8168 14.6943 15.5454C15.4268 15.5992 16.179 15.3891 16.7929 14.9013L20.188 12.2043L22.4623 15.0398C22.6346 15.2546 22.8306 15.4458 23.044 15.6128L24.5937 20.1889C25.185 21.935 24.7491 23.8489 23.4866 25.164C21.8591 25.2915 20.3831 26.1099 19.4142 27.4269L14.6536 28.7578C14.9636 27.4648 15.1201 26.1402 15.1201 24.8006ZM29.7811 6.72354L29.8925 7.1876C30.253 8.68979 29.5353 10.2121 28.2412 10.9292C28.0965 10.6997 27.9252 10.4848 27.7272 10.2894L26.1758 8.75856C26.4917 7.95341 27.1782 7.34813 28.0356 7.14236L29.7811 6.72354ZM22.451 2.15569C23.1917 1.97776 23.9772 2.31294 24.3604 2.97075C24.5959 3.37501 25.0697 3.57604 25.5239 3.46392C25.528 3.46297 25.5328 3.46171 25.538 3.46034C26.4114 3.25341 27.3135 3.39769 28.0792 3.86702C28.4543 4.09695 28.7742 4.39173 29.0285 4.73493L27.5434 5.0913C26.2988 5.38999 25.2571 6.16023 24.6051 7.2087L23.4696 6.0883C22.9088 5.53491 22.2351 5.16018 21.5214 4.96211C21.3506 4.75771 21.2281 4.51671 21.1652 4.25388C20.941 3.32091 21.5179 2.3796 22.451 2.15569ZM14.2746 11.8903L18.6149 7.59271C19.5441 6.6727 21.057 6.67144 21.9879 7.58975L26.2457 11.7909C26.5208 12.0623 26.6732 12.4247 26.6748 12.8111C26.6765 13.1975 26.5273 13.5612 26.2547 13.835C25.9612 14.1297 25.5705 14.2809 25.1556 14.2574C24.7402 14.2351 24.3681 14.0442 24.1078 13.7197H24.1079L21.1768 10.0654C20.8135 9.61265 20.1525 9.53839 19.698 9.89952L15.4809 13.2494C15.1067 13.5467 14.5621 13.5023 14.2409 13.1483C13.9126 12.7866 13.9275 12.2341 14.2746 11.8903ZM10.2664 12.5277C11.4936 12.9629 12.3746 14.1354 12.3746 15.5098C12.3746 15.7443 12.4528 15.972 12.5967 16.1571C13.0792 16.7779 13.3112 17.7794 13.2192 18.675H10.2664V12.5277ZM11.0471 35.3837C10.1507 35.3837 9.30741 34.989 8.73323 34.3007C8.15906 33.6124 7.92186 32.7119 8.0826 31.8301L10.0956 20.7845H13.0107V24.8007C13.0107 26.5551 12.7044 28.2798 12.1003 29.9267C11.964 30.2982 12.0473 30.7149 12.3159 31.0056C12.5184 31.2249 12.8006 31.3446 13.0906 31.3446C13.1852 31.3446 13.2807 31.3318 13.3745 31.3056L20.3525 29.3549C20.6053 29.2843 20.8227 29.1219 20.9621 28.8996C21.5925 27.8945 22.665 27.2861 23.844 27.2566L30.1038 28.4994L28.1006 31.6803C26.6401 33.9992 24.1322 35.3837 21.3917 35.3837H11.0471ZM28.1876 35.3837C28.5132 34.1703 29.6226 33.2743 30.9375 33.2743H33.0024V35.3837H28.1876Z" fill="#D3C0B8"/>
<path d="M38.9348 29.1878C39.2122 29.1878 39.4843 29.075 39.6804 28.8788C39.8776 28.6816 39.9895 28.4104 39.9895 28.1321C39.9895 27.8547 39.8776 27.5836 39.6804 27.3864C39.4843 27.1902 39.2131 27.0774 38.9348 27.0774C38.6574 27.0774 38.3853 27.1902 38.1891 27.3864C37.993 27.5826 37.8801 27.8547 37.8801 28.1321C37.8801 28.4105 37.9929 28.6816 38.1891 28.8788C38.3853 29.075 38.6574 29.1878 38.9348 29.1878Z" fill="#D3C0B8"/>
</svg>
