<svg width="46" height="31" viewBox="0 0 46 31" fill="none" xmlns="http://www.w3.org/2000/svg">
<path d="M39.8359 29.5654C39.9081 29.4775 39.9781 29.3872 40.0435 29.2916C40.2882 28.9338 40.1966 28.4455 39.8389 28.2008C39.8389 28.2008 34.6416 24.6457 34.6385 24.6437L31.1411 22.3947C30.7766 22.1603 30.2911 22.2656 30.0566 22.6303C29.8222 22.9948 29.9276 23.4804 30.2922 23.7148L33.1104 25.5271L31.966 27.2C29.5572 25.6317 27.932 25.0412 25.7513 24.2495C24.9354 23.9532 24.0106 23.6175 22.9386 23.1894C22.7439 23.1117 22.5263 23.115 22.3342 23.1988C21.2664 23.6636 20.0562 23.5495 19.0967 22.893C18.7939 22.6859 18.533 22.4344 18.3151 22.1437L20.8908 18.3785C22.0443 18.6032 23.1945 19.104 24.3166 19.8715C24.4521 19.9643 24.6063 20.0087 24.759 20.0087C25.0093 20.0087 25.2554 19.8892 25.4074 19.667C25.6521 19.3092 25.5605 18.821 25.2028 18.5762C23.7588 17.5883 22.2574 16.9792 20.7384 16.7623L16.0717 14.785C14.4616 14.1029 12.7693 13.7187 11.0319 13.6389C11.0225 13.5983 11.0136 13.5575 11.003 13.517C10.7252 12.4629 10.0536 11.5801 9.11189 11.0312H9.11182L8.29824 10.5569C7.3565 10.0081 6.25734 9.85865 5.20331 10.1365C4.32059 10.3691 3.5581 10.8778 3.01103 11.59C1.97348 11.5571 0.96661 12.0921 0.432098 13.0093C0.0467727 13.6703 -0.0580735 14.4418 0.136865 15.1817C0.331804 15.9216 0.80322 16.5412 1.46416 16.9265C2.12785 17.3133 2.90776 17.414 3.6354 17.2221C3.80821 17.3654 3.99279 17.4945 4.18781 17.6081L5.00146 18.0825C5.59601 18.429 6.24267 18.6075 6.88658 18.6332C7.01905 18.845 7.17954 19.05 7.36741 19.2474L6.01273 26.097C5.98487 26.238 5.88214 26.3512 5.74457 26.3927C4.30199 26.8273 3.26177 28.0002 2.98035 29.4304H0.784777C0.351345 29.4304 0 29.7819 0 30.2152C0 30.6487 0.351345 31 0.784777 31H39.3958C39.8293 31 40.1806 30.6487 40.1806 30.2152C40.1806 29.9449 40.0439 29.7066 39.8359 29.5654ZM35.4768 29.019C35.346 28.9295 35.1915 28.882 35.0337 28.882C35.0179 28.882 35.0019 28.8824 34.986 28.8834C34.4016 28.92 33.6874 28.6399 33.1778 28.2085L34.4188 26.3945L38.194 28.9771C37.4112 29.5478 36.3209 29.5965 35.4768 29.019ZM19.3353 17.8725L17.0843 21.1631C16.324 20.8684 14.9528 20.3994 13.5003 20.206C13.1761 20.1629 12.8345 20.1007 12.4891 20.0234C12.5892 19.3332 12.4085 18.637 11.9754 18.0758C11.5494 17.5239 10.9352 17.1756 10.2558 17.0899C10.3741 16.9403 10.4838 16.7812 10.5825 16.6118C10.8382 16.173 11.0061 15.6999 11.0856 15.2133C12.5927 15.297 14.0609 15.6375 15.4595 16.2301L19.3353 17.8725ZM8.32154 12.3872C8.9011 12.725 9.31437 13.2683 9.48529 13.9169C9.65621 14.5656 9.56424 15.242 9.22647 15.8215C8.88862 16.401 8.34532 16.8143 7.6967 16.9852C7.37675 17.0695 7.05013 17.0896 6.73166 17.048L7.47312 15.776C7.62089 15.5225 7.61493 15.2076 7.4575 14.9599C7.12076 14.43 7.10796 13.7639 7.42415 13.2214L8.01462 12.2084L8.32154 12.3872ZM4.39797 15.7868C4.2458 15.622 4.03533 15.5347 3.82147 15.5347C3.70478 15.5347 3.58706 15.5607 3.47719 15.6144C3.08653 15.8055 2.62963 15.7891 2.2549 15.5706C1.95614 15.3964 1.74307 15.1163 1.65486 14.7819C1.56673 14.4474 1.61413 14.0986 1.78835 13.7998C2.07385 13.3099 2.65781 13.0602 3.20872 13.1925C3.54492 13.2731 3.89422 13.1246 4.06907 12.8264C4.07197 12.8213 4.07519 12.8157 4.07849 12.8099C4.60154 11.92 5.59232 11.4707 6.55784 11.5913L6.06829 12.431C5.54006 13.3373 5.48536 14.4217 5.89807 15.3617L5.27739 16.4264L4.97847 16.2521C4.76234 16.1261 4.56701 15.9695 4.39797 15.7868ZM6.19754 27.8954C6.89262 27.686 7.41199 27.1136 7.55278 26.4015L8.92567 19.4598C9.01984 18.9838 9.4404 18.6382 9.92579 18.6382C10.2442 18.6382 10.5384 18.7827 10.7329 19.0348C10.9274 19.2869 10.9927 19.6081 10.912 19.916L8.70593 28.3363C8.5372 28.9804 7.95427 29.4303 7.28838 29.4303H4.60201C4.84749 28.7048 5.42838 28.1272 6.19754 27.8954ZM10.2242 28.7341L12.1073 21.5465C12.5111 21.638 12.912 21.7111 13.2931 21.7618C14.8157 21.9645 16.2869 22.5282 16.8289 22.7521C17.1882 23.3239 17.6518 23.8063 18.2106 24.1885C19.5255 25.088 21.161 25.2942 22.6469 24.7622C23.6185 25.145 24.4629 25.4515 25.2157 25.7248C27.5348 26.5668 29.0773 27.1273 31.6364 28.8657C31.7999 29.0687 31.9875 29.2587 32.1956 29.4304H9.94603C10.0652 29.2143 10.1595 28.9812 10.2242 28.7341Z" fill="#D3C0B8"/>
<path d="M27.7466 21.93C27.953 21.93 28.1555 21.8461 28.3015 21.7001C28.4475 21.5533 28.5314 21.3516 28.5314 21.1445C28.5314 20.9381 28.4475 20.7364 28.3015 20.5896C28.1555 20.4437 27.953 20.3605 27.7466 20.3605C27.5395 20.3605 27.3377 20.4437 27.1918 20.5896C27.0451 20.7356 26.9619 20.9381 26.9619 21.1445C26.9619 21.3516 27.045 21.5541 27.1918 21.7001C27.3378 21.8461 27.5395 21.93 27.7466 21.93Z" fill="#D3C0B8"/>
<path d="M45.2051 13.3618C45.2544 13.3018 45.3022 13.2401 45.3469 13.1748C45.514 12.9305 45.4515 12.597 45.2072 12.4298C45.2072 12.4298 41.6578 10.002 41.6557 10.0006L39.2672 8.46469C39.0183 8.30461 38.6867 8.37653 38.5265 8.62558C38.3664 8.87453 38.4385 9.20618 38.6874 9.36626L40.6121 10.6039L39.8305 11.7464C38.1855 10.6754 37.0756 10.2721 35.5863 9.73141C35.0291 9.52909 34.3975 9.29981 33.6654 9.00745C33.5325 8.95439 33.3839 8.95664 33.2527 9.01383C32.5234 9.33127 31.697 9.25334 31.0417 8.80502C30.8349 8.66358 30.6567 8.49181 30.5079 8.2933L32.2669 5.72193C33.0547 5.87537 33.8402 6.21736 34.6065 6.74157C34.6991 6.80492 34.8044 6.83525 34.9087 6.83525C35.0796 6.83525 35.2477 6.75363 35.3515 6.6019C35.5186 6.35756 35.456 6.02409 35.2117 5.85693C34.2256 5.18228 33.2002 4.76628 32.1628 4.6182L28.9758 3.26782C27.8763 2.80198 26.7206 2.53963 25.534 2.48513C25.5276 2.45736 25.5215 2.42955 25.5143 2.40189C25.3246 1.68201 24.8659 1.07912 24.2228 0.704224H24.2227L23.6671 0.380351C23.024 0.00550943 22.2733 -0.0965351 21.5535 0.0931904C20.9507 0.252045 20.4299 0.599447 20.0563 1.08587C19.3477 1.06336 18.6601 1.42877 18.2951 2.05513C18.0319 2.50656 17.9603 3.03345 18.0935 3.53874C18.2266 4.04404 18.5485 4.46717 18.9999 4.73032C19.4532 4.99449 19.9858 5.06325 20.4827 4.93221C20.6007 5.03007 20.7268 5.11824 20.86 5.19579L21.4156 5.51977C21.8217 5.75644 22.2633 5.87832 22.703 5.8959C22.7935 6.04049 22.9031 6.18054 23.0314 6.31533L22.1063 10.9931C22.0872 11.0894 22.0171 11.1667 21.9231 11.195C20.938 11.4918 20.2276 12.2929 20.0354 13.2696H18.5359C18.2399 13.2696 18 13.5096 18 13.8056C18 14.1016 18.2399 14.3415 18.5359 14.3415H44.9046C45.2006 14.3415 45.4405 14.1016 45.4405 13.8056C45.4405 13.6209 45.3472 13.4582 45.2051 13.3618ZM42.2282 12.9886C42.1388 12.9275 42.0333 12.8951 41.9256 12.8951C41.9147 12.8951 41.9039 12.8954 41.893 12.896C41.4939 12.921 41.0061 12.7298 40.6581 12.4352L41.5056 11.1963L44.0838 12.96C43.5492 13.3498 42.8046 13.383 42.2282 12.9886ZM31.2047 5.37635L29.6674 7.62358C29.1481 7.42238 28.2117 7.10205 27.2197 6.96999C26.9983 6.94051 26.765 6.89806 26.5292 6.84527C26.5976 6.37391 26.4741 5.89847 26.1783 5.51521C25.8874 5.13828 25.4679 4.90043 25.004 4.8419C25.0847 4.73975 25.1597 4.63111 25.2271 4.5154C25.4018 4.21575 25.5164 3.89263 25.5707 3.56029C26.5999 3.61747 27.6026 3.85002 28.5577 4.25472L31.2047 5.37635ZM23.683 1.63029C24.0788 1.86101 24.3611 2.232 24.4778 2.67496C24.5945 3.11797 24.5317 3.5799 24.301 3.97565C24.0703 4.37145 23.6993 4.65368 23.2563 4.77041C23.0378 4.82797 22.8147 4.84169 22.5973 4.81328L23.1036 3.94462C23.2045 3.77151 23.2005 3.55643 23.0929 3.38729C22.863 3.02536 22.8542 2.57045 23.0702 2.2L23.4734 1.5082L23.683 1.63029ZM21.0035 3.95196C20.8996 3.83946 20.7558 3.77981 20.6098 3.77981C20.5301 3.77981 20.4497 3.79755 20.3747 3.83427C20.1079 3.96472 19.7959 3.95351 19.5399 3.80431C19.3359 3.68538 19.1904 3.4941 19.1302 3.26568C19.07 3.03726 19.1023 2.79908 19.2213 2.59499C19.4163 2.2604 19.8151 2.08992 20.1913 2.18028C20.4209 2.23527 20.6595 2.13386 20.7789 1.9302C20.7809 1.92677 20.7831 1.92292 20.7853 1.91895C21.1425 1.31124 21.8192 1.00435 22.4785 1.08673L22.1442 1.66019C21.7835 2.27911 21.7461 3.01968 22.028 3.66164L21.6041 4.38881L21.3999 4.26978C21.2523 4.1837 21.1189 4.07678 21.0035 3.95196ZM22.2325 12.2213C22.7072 12.0783 23.0619 11.6874 23.158 11.2011L24.0956 6.46041C24.1599 6.1353 24.4471 5.89927 24.7786 5.89927C24.996 5.89927 25.197 5.99799 25.3298 6.17014C25.4626 6.34229 25.5072 6.56165 25.4521 6.77196L23.9455 12.5224C23.8303 12.9623 23.4322 13.2695 22.9775 13.2695H21.1429C21.3105 12.774 21.7072 12.3796 22.2325 12.2213ZM24.9824 12.7941L26.2684 7.88544C26.5442 7.94793 26.818 7.99783 27.0783 8.0325C28.1181 8.17094 29.1228 8.55586 29.493 8.70876C29.7383 9.09926 30.055 9.42876 30.4366 9.68976C31.3345 10.3041 32.4515 10.4449 33.4662 10.0815C34.1298 10.343 34.7065 10.5523 35.2205 10.7389C36.8043 11.314 37.8578 11.6967 39.6054 12.884C39.7171 13.0226 39.8452 13.1523 39.9873 13.2696H24.7924C24.8738 13.122 24.9382 12.9628 24.9824 12.7941Z" fill="#D3C0B8"/>
<path d="M36.949 8.14734C37.09 8.14734 37.2282 8.09004 37.3279 7.9903C37.4276 7.89008 37.485 7.75234 37.485 7.61085C37.485 7.4699 37.4276 7.33216 37.3279 7.23194C37.2282 7.1323 37.09 7.07544 36.949 7.07544C36.8075 7.07544 36.6697 7.1323 36.5701 7.23194C36.4699 7.33162 36.4131 7.4699 36.4131 7.61085C36.4131 7.75234 36.4698 7.89062 36.5701 7.9903C36.6698 8.08999 36.8075 8.14734 36.949 8.14734Z" fill="#D3C0B8"/>
</svg>
