<svg width="142" height="37" viewBox="0 0 142 37" fill="none" xmlns="http://www.w3.org/2000/svg">
    <g clip-path="url(#clip0)">
        <path d="M6.25292 0.392251H6.48741L6.23338 0.372674C6.14269 0.359279 6.05052 0.359279 5.95982 0.372674H5.86212H5.74487H5.86212C5.47043 0.175712 5.04704 0.0497824 4.61153 0.000716407C4.23218 -0.0128908 3.85534 0.0675454 3.51446 0.234885C3.17358 0.402225 2.87922 0.651291 2.65749 0.959976C2.11995 1.73796 1.87108 2.67987 1.95404 3.62241C1.97129 4.47242 2.32235 5.28135 2.93106 5.87373C3.8602 6.7313 4.94924 7.39659 6.13568 7.8314C7.38191 8.26998 8.49295 9.02555 9.35985 10.024C10.0607 10.8356 10.4549 11.8679 10.4736 12.9409C10.4911 13.579 10.3711 14.2133 10.1219 14.8007C9.89117 15.3512 9.54459 15.8453 9.10582 16.2494C8.66635 16.6579 8.14748 16.9711 7.58167 17.1695C6.94979 17.3719 6.29101 17.4775 5.62763 17.4827C4.96366 17.4849 4.30373 17.3791 3.67359 17.1695C3.0568 16.9269 2.47777 16.5973 1.95404 16.1907C1.53186 15.8748 1.13942 15.521 0.781615 15.1335C0.487368 14.7449 0.225927 14.3323 0 13.9002L0.52759 13.7044C0.52759 13.9002 0.762075 14.096 0.898858 14.3505L1.38737 15.0944C1.60231 15.3097 1.77818 15.5446 2.01266 15.7991L2.67703 16.4256C3.505 17.0707 4.52022 17.4281 5.56901 17.4436C6.03319 17.4713 6.49743 17.3902 6.92484 17.2067C7.35225 17.0232 7.73104 16.7423 8.0311 16.3864C8.69174 15.5936 9.02702 14.5789 8.96904 13.5478C8.95033 13.1715 8.85383 12.8032 8.68565 12.4662C8.51747 12.1292 8.28127 11.8309 7.99202 11.5901C7.13256 10.7963 6.12247 10.1838 5.02188 9.78908C3.68821 9.25668 2.50195 8.41066 1.56323 7.32241C0.831304 6.49424 0.415923 5.43304 0.390808 4.32717C0.384898 3.72722 0.484104 3.13087 0.683914 2.56527C0.88559 2.05569 1.18424 1.59027 1.56323 1.1949C1.93648 0.807391 2.39007 0.506668 2.89198 0.313944C3.43918 0.0978073 4.02341 -0.00861384 4.61153 0.000716407C5.15102 -0.0107251 5.68968 0.0485065 6.21384 0.176907C6.70587 0.302801 7.17899 0.493718 7.62075 0.744632C8.04483 0.948164 8.42876 1.2267 8.75409 1.56685C9.08078 1.88009 9.3459 2.25196 9.53571 2.66315L8.96904 2.91765C8.88377 2.66777 8.74353 2.4403 8.55869 2.25204C8.3756 1.98975 8.15878 1.75278 7.91386 1.54728C7.69197 1.29654 7.43533 1.07898 7.15178 0.901246C6.87486 0.694166 6.57283 0.523134 6.25292 0.392251ZM6.25292 0.392251C6.23162 0.381864 6.20823 0.376467 6.18453 0.376467C6.16084 0.376467 6.13745 0.381864 6.11614 0.392251H5.95982H5.86212H6.25292Z"
              fill="#D3C0B8"/>
        <path d="M26.8876 0.822226H26.6922C26.6922 0.822226 26.6922 0.822226 26.4968 0.822226H25.7347C25.3634 0.822226 24.8945 0.822226 24.2301 0.822226H20.1461V15.6614C20.1461 16.0529 20.1461 16.3466 20.1461 16.5815C20.1582 16.7313 20.1582 16.8819 20.1461 17.0317C20.1425 17.0708 20.1425 17.1101 20.1461 17.1492V17.3058H18.1335V17.0905C18.1335 17.0905 18.1335 17.0905 18.1335 16.973C18.1471 16.8298 18.1471 16.6856 18.1335 16.5423C18.1335 16.3074 18.1335 16.0138 18.1335 15.6222C18.1335 15.2307 18.1335 14.7021 18.1335 14.0952V0.685189H12.6817C12.428 0.666436 12.1733 0.666436 11.9196 0.685189C11.7242 0.763496 11.7242 0.783072 11.7242 0.822226H11.5484V0.685189V0.234924H11.7242H12.076H12.7794H26.2232H26.4186H26.5749H26.7313V0.685189L26.8876 0.822226Z"
              fill="#D3C0B8"/>
        <path d="M29.1738 0.391518V0.234904H33.9417C34.6969 0.229853 35.4483 0.34212 36.1693 0.567709C36.8195 0.762112 37.4196 1.09614 37.9279 1.54654C38.4156 1.95119 38.7978 2.4685 39.0417 3.05395C39.314 3.66979 39.4475 4.33822 39.4325 5.01162C39.4685 5.49534 39.3979 5.98106 39.2257 6.43439C39.0534 6.88772 38.7838 7.29757 38.4359 7.6349C37.6748 8.32041 36.7311 8.76933 35.7198 8.92697C35.9934 9.37723 36.4233 10.219 37.0681 11.4132L39.413 15.6614L39.8624 16.4444C39.979 16.606 40.117 16.7509 40.2727 16.8751C40.4529 16.9733 40.6539 17.027 40.8589 17.0317H41.7578V17.1688H39.6865C39.2785 17.1436 38.8733 17.0847 38.475 16.9926C38.1981 16.9 37.9493 16.7383 37.752 16.5227C37.5957 16.3074 37.4198 16.0137 37.2049 15.6614C36.3451 13.9973 35.583 12.6074 34.9577 11.4328C34.3325 10.2582 33.9807 9.47512 33.8049 9.02485H31.2646V15.4852C31.2646 15.8963 31.2646 16.2291 31.2646 16.464C31.2646 16.6989 31.2646 16.8555 31.2646 16.9534C31.2595 16.999 31.2595 17.0449 31.2646 17.0905V17.2471H29.1152V17.0905C29.1152 17.0905 29.1152 17.0905 29.1152 16.973C29.14 16.8174 29.14 16.6588 29.1152 16.5032C29.1152 16.2487 29.1152 15.9159 29.1152 15.5047C29.1152 15.0936 29.1152 14.5259 29.1152 13.8407V3.64125C29.1152 2.95607 29.1152 2.40792 29.1152 1.99681C29.1152 1.5857 29.1152 1.23332 29.1152 1.01797C29.1449 0.856195 29.1449 0.690334 29.1152 0.528555C29.1152 0.430672 29.1152 0.391518 29.1152 0.391518H29.1738ZM31.1278 0.587285V8.63332H33.883C34.3392 8.6583 34.7955 8.58762 35.2228 8.42582C35.6501 8.26401 36.039 8.01463 36.3647 7.69363C36.7122 7.27433 36.9739 6.79054 37.1349 6.2699C37.2958 5.74926 37.3528 5.20195 37.3026 4.65924C37.3615 4.1048 37.3016 3.54415 37.1267 3.0148C36.9571 2.52605 36.6761 2.08365 36.306 1.72274C35.9638 1.34886 35.534 1.06627 35.0555 0.900513C34.5241 0.67678 33.9511 0.569963 33.375 0.587285H31.1278Z"
              fill="#D3C0B8"/>
        <path d="M53.1499 0.234924V0.391538H52.974C52.7927 0.363875 52.6082 0.363875 52.4269 0.391538H46.0372V8.43757H49.1636H50.6682H51.4108H51.6062H51.7625V8.86826H51.6062C51.6062 8.86826 51.6062 8.86826 51.4303 8.86826H50.6878H46.0372V15.5243C46.0067 15.7976 46.0067 16.0733 46.0372 16.3466C46.0756 16.5688 46.1697 16.7776 46.3107 16.9534C46.4862 17.149 46.7079 17.2971 46.9556 17.3841C47.3179 17.4873 47.6927 17.54 48.0694 17.5407H52.5832H53.3062H53.5211H53.6774V17.6386C53.6721 17.6776 53.6721 17.7171 53.6774 17.7561H43.9073V17.0905C43.9073 17.0905 43.9073 17.0905 43.9073 16.973C43.9199 16.8167 43.9199 16.6595 43.9073 16.5032C43.9073 16.2487 43.9073 15.9159 43.9073 15.5048C43.9073 15.0937 43.9073 14.5259 43.9073 13.8407V3.64127C43.9073 2.95609 43.9073 2.40794 43.9073 1.99683C43.9073 1.58572 43.9073 1.23334 43.9073 1.01799C43.9241 0.855291 43.9241 0.691277 43.9073 0.528575C43.9073 0.430692 43.9073 0.391538 43.9073 0.391538V0.234924H53.1499Z"
              fill="#D3C0B8"/>
        <path d="M70.6189 0.822226H70.3454C70.3454 0.822226 70.3454 0.822226 70.15 0.822226H69.3879C69.0362 0.822226 68.5477 0.822226 67.8833 0.822226H63.8775V15.6614C63.894 15.9679 63.894 16.275 63.8775 16.5815C63.8775 16.7968 63.8775 16.9339 63.8775 17.0317V17.1492V17.3058H61.7281V17.0905C61.7281 17.0905 61.7281 17.0905 61.7281 16.973C61.7417 16.8298 61.7417 16.6856 61.7281 16.5423C61.7281 16.3074 61.7281 16.0138 61.7281 15.6222C61.7281 15.2307 61.7281 14.7021 61.7281 14.0952V0.685189H56.4131C56.1659 0.666163 55.9177 0.666163 55.6706 0.685189C55.5338 0.685189 55.4556 0.685189 55.4556 0.685189H55.2798V0.548152V0.234924H55.4361H55.7683H56.4913H69.9155H70.1109H70.3454H70.5212V0.685189L70.6189 0.822226Z"
              fill="#D3C0B8"/>
        <path d="M84.7662 16.3074C84.1621 16.6782 83.5023 16.9492 82.8122 17.11C81.9314 17.3416 81.0261 17.4664 80.1156 17.482C79.0353 17.49 77.9647 17.2768 76.9696 16.8555C76.0121 16.4487 75.1526 15.8413 74.4489 15.0741C73.7695 14.2535 73.2403 13.319 72.8857 12.3137C72.4918 11.1608 72.2937 9.94981 72.2994 8.73121C72.2858 7.51999 72.4774 6.31524 72.8661 5.16824C73.2178 4.15333 73.7618 3.21605 74.4684 2.40793C75.1625 1.63453 76.025 1.03166 76.9891 0.646022C78.0267 0.204419 79.1447 -0.0156066 80.2719 -1.01696e-05C81.0143 -0.027725 81.7569 0.0447055 82.48 0.215334C83.0624 0.327405 83.6232 0.532298 84.1409 0.822212C84.6277 1.05983 85.0757 1.37006 85.4697 1.74232C85.8832 2.11796 86.2686 2.52364 86.6226 2.95607L86.5053 3.07353C86.5053 3.07353 86.5053 3.07353 86.3685 3.19099L86.1731 3.34761C85.9809 3.10487 85.772 2.87591 85.5478 2.66242C85.3129 2.40756 85.0581 2.17189 84.7858 1.95766C84.546 1.71994 84.2914 1.49763 84.0237 1.29205C83.7998 1.09354 83.5577 0.91657 83.3007 0.763482C82.8778 0.530263 82.4238 0.358862 81.9524 0.254487C81.4201 0.0920368 80.8674 0.00634442 80.311 -1.01696e-05C79.4584 -0.0104243 78.6174 0.198533 77.8685 0.606868C77.0856 1.02016 76.415 1.61815 75.9144 2.3492C75.3797 3.20344 74.9778 4.13419 74.7225 5.10951C74.4307 6.26777 74.2862 7.45834 74.2926 8.6529C74.2813 9.85301 74.4191 11.0499 74.7029 12.2159C74.936 13.1861 75.3254 14.1119 75.8558 14.9566C76.3096 15.6697 76.9173 16.2717 77.634 16.7185C78.3466 17.1292 79.1568 17.3389 79.9788 17.3254C80.6962 17.3454 81.4129 17.2664 82.1087 17.0905C82.701 16.9051 83.2661 16.6417 83.7892 16.3074C84.1867 16.0188 84.5652 15.7049 84.9225 15.3677C85.2706 15.0368 85.597 14.6837 85.8996 14.3106V14.1931C85.9015 14.154 85.9015 14.1148 85.8996 14.0757L86.3881 14.428C86.1368 14.7724 85.8626 15.0995 85.5674 15.4069C85.3292 15.7316 85.061 16.0332 84.7662 16.3074Z"
              fill="#D3C0B8"/>
        <path d="M101.942 0.234924V0.391538V0.508998C101.919 0.651609 101.919 0.797075 101.942 0.939686C101.942 1.15503 101.942 1.44868 101.942 1.85979C101.942 2.2709 101.942 2.76032 101.942 3.38678V15.6614C101.942 16.0529 101.942 16.3466 101.942 16.5815C101.942 16.8164 101.942 16.9339 101.942 17.0317V17.1492V17.3058H99.7928V17.0905C99.7928 17.0905 99.7928 17.0905 99.7928 16.973C99.8064 16.8298 99.8064 16.6856 99.7928 16.5423C99.8159 16.2361 99.8159 15.9285 99.7928 15.6222C99.7928 15.2111 99.7928 14.7021 99.7928 14.0952V8.59418H91.9571V15.6614C91.9571 16.0529 91.9571 16.3466 91.9571 16.5815C91.9571 16.8164 91.9571 16.9339 91.9571 17.0317V17.1492V17.3058H89.8858V17.0905C89.8858 17.0905 89.8858 17.0905 89.8858 16.973C89.8994 16.8298 89.8994 16.6856 89.8858 16.5423C89.909 16.2361 89.909 15.9285 89.8858 15.6222C89.8858 15.2111 89.8858 14.7021 89.8858 14.0952V3.38678C89.8858 2.76032 89.8858 2.25133 89.8858 1.85979C89.8858 1.46826 89.8858 1.15503 89.8858 0.939686C89.9091 0.797075 89.9091 0.651609 89.8858 0.508998C89.8858 0.411115 89.8858 0.391538 89.8858 0.391538V0.234924H92.0352V0.391538C92.0299 0.430508 92.0299 0.470029 92.0352 0.508998C92.0352 0.508998 92.0352 0.704766 92.0352 0.939686C92.0352 1.17461 92.0352 1.44868 92.0352 1.85979C92.0352 2.2709 92.0352 2.76032 92.0352 3.38678V8.51588H100.008V3.38678C100.008 2.76032 100.008 2.25133 100.008 1.85979C100.008 1.46826 100.008 1.15503 100.008 0.939686C100.031 0.797075 100.031 0.651609 100.008 0.508998C100.008 0.411115 100.008 0.391538 100.008 0.391538V0.234924H101.942Z"
              fill="#D3C0B8"/>
        <path d="M108.215 0.234924V0.391538V0.508998C108.206 0.652428 108.206 0.796256 108.215 0.939686C108.215 1.15503 108.215 1.44868 108.215 1.85979C108.215 2.2709 108.215 2.76032 108.215 3.38678V15.6614C108.215 16.0529 108.215 16.3466 108.215 16.5815C108.215 16.8164 108.215 16.9339 108.215 17.0317V17.1492V17.3058H106.046V17.0905C106.046 17.0905 106.046 17.0905 106.046 16.973C106.059 16.8298 106.059 16.6856 106.046 16.5423C106.046 16.3074 106.046 16.0138 106.046 15.6222C106.046 15.2307 106.046 14.7021 106.046 14.0952V3.38678C106.046 2.76032 106.046 2.25133 106.046 1.85979C106.07 1.55356 106.07 1.24592 106.046 0.939686C106.065 0.796775 106.065 0.651909 106.046 0.508998C106.046 0.411115 106.046 0.391538 106.046 0.391538V0.234924H108.215Z"
              fill="#D3C0B8"/>
        <path d="M123.827 0.234924V0.391538C123.827 0.391538 123.827 0.391538 123.827 0.646035C123.827 0.900533 123.827 1.15503 123.827 1.64445L123.71 17.3058H123.104L121.15 14.663L112.768 2.91693V11.0804V11.3153V16.1508C112.768 16.5228 112.768 16.7381 112.768 16.8751C112.768 17.0122 112.768 17.0905 112.768 17.0905V17.2471H111.869V17.0905C111.869 17.0905 111.869 17.0905 111.869 16.973C111.881 16.8167 111.881 16.6595 111.869 16.5032C111.869 16.2683 111.869 15.9746 111.869 15.5635C111.869 15.1524 111.869 14.6042 111.869 13.9974V2.25133L111.204 0.508998V0.411115V0.234924H113.334L122.811 13.5275L123.183 14.0365V5.3836C123.183 4.32646 123.183 3.42593 123.183 2.83863C123.183 2.25133 123.183 1.70318 123.183 1.33122C123.176 1.0816 123.15 0.832894 123.104 0.587305C123.104 0.450268 123.104 0.391538 123.104 0.391538V0.234924H123.945H123.827Z"
              fill="#D3C0B8"/>
        <path d="M140.476 9.78835V9.96454V10.082C140.49 10.2252 140.49 10.3695 140.476 10.5127C140.476 10.728 140.476 11.0021 140.476 11.4132C140.476 11.8243 140.476 12.3137 140.476 12.9598V16.3857C141.039 16.231 141.589 16.0279 142.117 15.7788L140.456 16.4836H140.124C139.284 16.7701 138.421 16.9861 137.545 17.1296C136.516 17.2842 135.478 17.3628 134.438 17.3645C133.326 17.3744 132.223 17.1614 131.194 16.7381C130.251 16.3259 129.405 15.7188 128.713 14.9566C127.991 14.1862 127.415 13.2907 127.013 12.3137C126.625 11.1596 126.434 9.94871 126.446 8.73121C126.432 7.51999 126.624 6.31524 127.013 5.16824C127.364 4.15333 127.908 3.21605 128.615 2.40793C129.309 1.63453 130.171 1.03166 131.136 0.646022C132.167 0.207083 133.278 -0.012888 134.399 -1.01691e-05C135.141 -0.027725 135.884 0.0447055 136.607 0.215334C137.189 0.327405 137.75 0.532298 138.268 0.822212C138.755 1.05983 139.203 1.37006 139.597 1.74232C140.01 2.11796 140.395 2.52364 140.749 2.95607L140.691 3.07353C140.691 3.07353 140.691 3.07353 140.554 3.191L140.359 3.34761C140.166 3.10487 139.957 2.87591 139.733 2.66242C139.48 2.40511 139.205 2.16937 138.913 1.95766C138.66 1.71863 138.393 1.49629 138.111 1.29205C137.888 1.09354 137.645 0.91657 137.388 0.763482C136.966 0.530263 136.512 0.358862 136.04 0.254487C135.52 0.0956636 134.981 0.0100112 134.438 -1.01691e-05C133.585 -0.0104243 132.744 0.198533 131.995 0.606868C131.213 1.02016 130.542 1.61815 130.041 2.3492C129.54 3.23472 129.178 4.19208 128.967 5.18782C128.675 6.34608 128.53 7.53665 128.537 8.73121C128.532 9.88056 128.676 11.0257 128.967 12.1376C129.222 13.0732 129.632 13.9597 130.178 14.7608C130.71 15.4429 131.375 16.0091 132.132 16.4249C132.891 16.8269 133.736 17.0354 134.594 17.0317H135.259H135.923H134.829C135.727 17.0284 136.614 16.8279 137.428 16.4444C137.712 16.3236 137.961 16.1329 138.152 15.8899C138.344 15.647 138.471 15.3597 138.522 15.0545V13.0968C138.522 12.4508 138.522 11.9614 138.522 11.5698C138.522 11.1783 138.522 10.8651 138.522 10.6497C138.551 10.5077 138.551 10.3611 138.522 10.219C138.522 10.1212 138.522 10.1016 138.522 10.1016V9.78835H140.476Z"
              fill="#D3C0B8"/>
        <path d="M56.8821 36.9217C56.7656 36.9274 56.6494 36.9076 56.5414 36.8636C56.4334 36.8197 56.3362 36.7526 56.2568 36.6672C56.1685 36.5848 56.0985 36.4846 56.0513 36.3733C56.0042 36.262 55.981 36.142 55.9832 36.0211C55.9759 35.9014 55.9949 35.7816 56.0388 35.67C56.0827 35.5584 56.1504 35.4577 56.2372 35.3751C56.4148 35.218 56.6452 35.1341 56.8821 35.1402C57.1196 35.13 57.3514 35.2145 57.5269 35.3751C57.6107 35.4599 57.6764 35.5609 57.7201 35.672C57.7638 35.7831 57.7845 35.9018 57.7809 36.0211C57.7855 36.136 57.7671 36.2505 57.7269 36.3581C57.6866 36.4657 57.6252 36.5641 57.5464 36.6476C57.4605 36.7366 57.3571 36.8069 57.2428 36.854C57.1284 36.9012 57.0057 36.9242 56.8821 36.9217Z"
              fill="#D3C0B8"/>
        <path d="M61.6108 24.0598V24.1772V24.2751C61.6031 24.3794 61.6031 24.4841 61.6108 24.5884V25.2931C61.6108 25.5672 61.6108 25.9587 61.6108 26.4286V35.5905C61.6108 35.8841 61.6108 36.0995 61.6108 36.2757C61.5979 36.3928 61.5979 36.5109 61.6108 36.628V36.7455H59.9695V36.628C59.9826 36.5175 59.9826 36.4058 59.9695 36.2952C59.9811 36.067 59.9811 35.8383 59.9695 35.6101C59.9695 35.2968 59.9695 34.9249 59.9695 34.455V26.4286C59.9695 25.9587 59.9695 25.5672 59.9695 25.2931C59.9817 25.0584 59.9817 24.8231 59.9695 24.5884C59.9873 24.4847 59.9873 24.3788 59.9695 24.2751C59.9695 24.2751 59.9695 24.1772 59.9695 24.1772V24.0598H61.6108Z"
              fill="#D3C0B8"/>
        <path d="M73.3155 24.0598V24.1772C73.3155 24.1772 73.3155 24.1772 73.3155 24.373C73.3155 24.5688 73.3155 24.745 73.3155 25.1365V36.8825H73.042L71.6155 34.9248L65.3235 26.1545V32.282V36.0799C65.3235 36.3539 65.3235 36.5301 65.3235 36.628C65.3235 36.7259 65.3235 36.7846 65.3235 36.7846V36.9021H64.6592V36.7846C64.672 36.661 64.672 36.5363 64.6592 36.4127C64.6711 36.1779 64.6711 35.9427 64.6592 35.7079C64.6592 35.3947 64.6592 35.0031 64.6592 34.5333V25.5476L63.7408 24.2751V24.1577H65.4994L72.6121 34.1418L72.8857 34.5137V27.936C72.8857 27.1333 72.8857 26.5069 72.8857 25.9783C72.8857 25.4497 72.8857 25.1169 72.8857 24.8428C72.9025 24.6605 72.9025 24.477 72.8857 24.2947C72.8931 24.2428 72.8931 24.19 72.8857 24.1381V24.0206H73.5109L73.3155 24.0598Z"
              fill="#D3C0B8"/>
        <path d="M84.4926 36.119C84.0453 36.3915 83.557 36.5898 83.0466 36.7063C82.4074 36.8626 81.7505 36.9349 81.0926 36.9217C80.2805 36.9308 79.4754 36.7709 78.7282 36.4518C78.0348 36.1427 77.4153 35.6888 76.911 35.1206C76.3958 34.5073 75.9983 33.8037 75.7385 33.0455C75.4489 32.1813 75.3036 31.2751 75.3087 30.3635C75.3003 29.4516 75.4457 28.5449 75.7385 27.6815C76.0094 26.9552 76.4212 26.2898 76.9501 25.7238C77.493 25.1383 78.161 24.6832 78.9041 24.3926C79.6813 24.0579 80.5203 23.8911 81.3662 23.9032C81.9177 23.8873 82.469 23.9399 83.0076 24.0598C83.4541 24.1445 83.8834 24.3033 84.2777 24.5296C84.6392 24.712 84.9744 24.9425 85.2743 25.2148C85.5801 25.5029 85.8673 25.8102 86.134 26.1349H86.0363L85.88 26.2719C85.7404 26.0815 85.5834 25.9046 85.411 25.7434C85.2313 25.5575 85.0422 25.3811 84.8444 25.2148C84.6612 25.0296 84.4581 24.8654 84.2386 24.7254C84.0708 24.5699 83.8875 24.4321 83.6915 24.3143C83.3785 24.1437 83.043 24.0185 82.6949 23.9423C82.2988 23.844 81.8915 23.7979 81.4834 23.8053C80.8472 23.8007 80.2208 23.9627 79.6662 24.2751C79.1001 24.5859 78.6175 25.0292 78.2593 25.5672C77.8447 26.203 77.5407 26.9047 77.3604 27.6423C77.132 28.511 77.0203 29.4064 77.0282 30.3047C77.0264 31.2015 77.1313 32.0953 77.3409 32.9672C77.3942 33.7476 77.5723 34.5143 77.8684 35.2381C78.2098 35.7797 78.6712 36.2352 79.2167 36.5693C79.7484 36.866 80.3472 37.021 80.9558 37.0196C81.4955 37.0366 82.035 36.9773 82.5581 36.8434C83.0081 36.7115 83.4362 36.5136 83.8283 36.2561C84.1233 36.0396 84.404 35.8042 84.6685 35.5513C84.9375 35.3046 85.1859 35.0361 85.411 34.7487L85.7823 35.0032C85.5869 35.2577 85.3915 35.4926 85.157 35.7471C84.9455 35.8882 84.7234 36.0125 84.4926 36.119Z"
              fill="#D3C0B8"/>
        <path d="M6.31155 19.767H135.278" stroke="#E6D6D0" stroke-width="0.45" stroke-miterlimit="10"/>
    </g>
    <defs>
        <clipPath id="clip0">
            <rect width="142" height="37" fill="white"/>
        </clipPath>
    </defs>
</svg>
