<svg width="25" height="25" viewBox="0 0 25 25" xmlns="http://www.w3.org/2000/svg">
<path d="M20.1923 0H4.8077C2.13674 0 0 2.13674 0 4.8077V20.1923C0 22.8633 2.13674 25 4.8077 25H20.1923C22.8632 25 25 22.8633 25 20.1923V4.80769C25 2.13675 22.8632 0 20.1923 0ZM21.5812 2.88462H22.1154V7.15811H17.8419V2.88462H21.5812ZM8.97437 9.93591C9.72223 8.86752 11.1111 8.11965 12.5 8.11965C13.8889 8.11965 15.2778 8.86752 16.0256 9.93591C16.5598 10.6838 16.8803 11.5385 16.8803 12.5C16.8803 14.9573 14.8504 16.8803 12.5 16.8803C10.1496 16.8803 8.11968 14.9573 8.11968 12.5C8.11966 11.5385 8.44018 10.6838 8.97437 9.93591ZM22.5427 20.1923C22.5427 21.4744 21.4743 22.5427 20.1923 22.5427H4.8077C3.52565 22.5427 2.45726 21.4744 2.45726 20.1923V9.93591H6.19657C5.87605 10.6838 5.6624 11.6453 5.6624 12.5C5.6624 16.2393 8.76068 19.3376 12.5 19.3376C16.2393 19.3376 19.3376 16.2393 19.3376 12.5C19.3376 11.6453 19.1239 10.6837 18.8034 9.93591H22.5427L22.5427 20.1923Z"/>
</svg>
